<svg width="24" height="24" viewBox="0 0 24 24" fill="none" xmlns="http://www.w3.org/2000/svg">
<path d="M10.8138 1.20049C11.5339 0.441767 12 0 12 0C12.1633 0.544381 12.3503 1.06257 12.5568 1.55741C13.7741 4.47563 15.6664 6.58168 17.3512 8.45686C19.3168 10.6445 21 12.5179 21 15C21 19.9706 16.9706 24 12 24C7.02944 24 3 19.9706 3 15C3 10.002 8.36969 3.77564 10.8138 1.20049ZM11.4351 2.73192C10.6507 3.58221 9.66954 4.70628 8.69137 5.98493C7.60131 7.40985 6.53737 8.99775 5.75134 10.5904C4.95721 12.1994 4.5 13.7071 4.5 15C4.5 15 8.25 17.25 12 15.75C15.75 14.25 19.5 15 19.5 15C19.5 13.1981 18.3064 11.7643 16.228 9.45105L16.1837 9.4018C14.6233 7.66519 12.7493 5.5796 11.4351 2.73192Z" fill="#0F4C5C"/>
<path d="M6.82918 11.6646C8.06032 9.20231 9.40539 7.53395 9.96967 6.96967L11.0303 8.03033C10.5946 8.46605 9.33968 9.99769 8.17082 12.3354L6.82918 11.6646Z" fill="#0F4C5C"/>
</svg>
